<svg width="23" height="23" viewBox="0 0 23 23" fill="none" xmlns="http://www.w3.org/2000/svg">
<path fill-rule="evenodd" clip-rule="evenodd" d="M11.1125 1.20465C5.17868 1.20465 0.368347 6.01499 0.368347 11.9488C0.368347 17.8827 5.17868 22.693 11.1125 22.693C17.0464 22.693 21.8567 17.8827 21.8567 11.9488C21.8567 6.01499 17.0464 1.20465 11.1125 1.20465ZM11.1125 21.1581C6.02638 21.1581 1.90323 17.035 1.90323 11.9488C1.90323 6.86268 6.02638 2.73953 11.1125 2.73953C16.1987 2.73953 20.3218 6.86268 20.3218 11.9488C20.3218 17.035 16.1987 21.1581 11.1125 21.1581Z" fill="#D3CFEA"/>
<path d="M21.8567 11.9488H22.1067H21.8567ZM11.1125 0.954651C5.04061 0.954651 0.118347 5.87692 0.118347 11.9488H0.618347C0.618347 6.15306 5.31675 1.45465 11.1125 1.45465V0.954651ZM0.118347 11.9488C0.118347 18.0208 5.04061 22.943 11.1125 22.943V22.443C5.31675 22.443 0.618347 17.7446 0.618347 11.9488H0.118347ZM11.1125 22.943C17.1845 22.943 22.1067 18.0208 22.1067 11.9488H21.6067C21.6067 17.7446 16.9083 22.443 11.1125 22.443V22.943ZM22.1067 11.9488C22.1067 5.87692 17.1845 0.954651 11.1125 0.954651V1.45465C16.9083 1.45465 21.6067 6.15306 21.6067 11.9488H22.1067ZM11.1125 20.9081C6.16445 20.9081 2.15323 16.8969 2.15323 11.9488H1.65323C1.65323 17.1731 5.8883 21.4081 11.1125 21.4081V20.9081ZM2.15323 11.9488C2.15323 7.00075 6.16445 2.98953 11.1125 2.98953V2.48953C5.8883 2.48953 1.65323 6.72461 1.65323 11.9488H2.15323ZM11.1125 2.98953C16.0606 2.98953 20.0718 7.00075 20.0718 11.9488H20.5718C20.5718 6.72461 16.3368 2.48953 11.1125 2.48953V2.98953ZM20.0718 11.9488C20.0718 16.8969 16.0606 20.9081 11.1125 20.9081V21.4081C16.3368 21.4081 20.5718 17.1731 20.5718 11.9488H20.0718Z" fill="#D3CFEA"/>
<path fill-rule="evenodd" clip-rule="evenodd" d="M11.3683 5.55347C10.9445 5.55347 10.6009 5.89706 10.6009 6.32091V13.4837C10.6009 13.9075 10.9445 14.2511 11.3683 14.2511C11.7922 14.2511 12.1358 13.9075 12.1358 13.4837V6.32091C12.1358 5.89706 11.7922 5.55347 11.3683 5.55347Z" fill="#D3CFEA" stroke="#D3CFEA" stroke-width="0.5"/>
<path fill-rule="evenodd" clip-rule="evenodd" d="M11.3683 17.0651C11.7922 17.0651 12.1358 16.7215 12.1358 16.2977C12.1358 15.8738 11.7922 15.5302 11.3683 15.5302C10.9445 15.5302 10.6009 15.8738 10.6009 16.2977C10.6009 16.7215 10.9445 17.0651 11.3683 17.0651Z" fill="#D3CFEA" stroke="#D3CFEA" stroke-width="0.5"/>
</svg>
