<svg width="24" height="23" viewBox="0 0 24 23" fill="none" xmlns="http://www.w3.org/2000/svg">
<path fill-rule="evenodd" clip-rule="evenodd" d="M23.4524 21.1279V7.22093C23.4524 6.68605 23.3593 6.4186 22.9048 6.4186C21.3112 6.4186 20.676 7.5686 20.1667 8.49395C19.5807 9.56372 19.1919 10.1628 17.9762 10.1628C17.0671 10.1628 16.7879 9.62791 16.2731 8.18372C15.7583 6.73953 15.0738 4.81395 12.5 4.81395H12.3248H12.2262C12.1607 4.80612 12.0945 4.80612 12.029 4.81395C9.17048 5.07605 8.48595 7.72907 7.88357 10.0933C7.65005 11.1801 7.29945 12.2397 6.83762 13.2544C6.70262 13.5151 6.53922 13.7608 6.35024 13.9872C6.19209 14.0722 6.067 14.2056 5.99429 14.367C5.07037 15.158 3.87041 15.5716 2.64286 15.5223V0.802326C2.64286 0.359213 2.27509 0 1.82143 0C1.36777 0 1 0.359213 1 0.802326V21.3953C1 21.8385 1.36777 22.1977 1.82143 22.1977H22.9048C23.3593 22.1977 23.6167 21.2723 23.4524 21.1279ZM5.92857 20.593H2.64286V17.1537H2.7469C3.85516 17.1537 4.94689 16.8912 5.92857 16.3888V20.593ZM11.4048 20.593H7.57143V15.0891C7.85749 14.7613 8.10373 14.4024 8.30524 14.0193C8.82446 12.9 9.21741 11.7289 9.47714 10.5265C9.99191 8.51535 10.3862 7.18349 11.4048 6.67535V20.593ZM16.881 20.593H13.0476V6.48279C13.9512 6.69674 14.2798 7.47233 14.7233 8.70791C15.0957 9.74558 15.5776 11.0988 16.881 11.5802V20.593ZM21.8095 20.593H18.5238V11.7353C20.3748 11.5214 21.0867 10.227 21.6179 9.25349L21.8095 8.91651V20.593Z" fill="#D3CFEA"/>
<path d="M23.4524 21.1279H23.2024V21.241L23.2873 21.3157L23.4524 21.1279ZM20.1667 8.49395L19.9476 8.37341L19.9474 8.37385L20.1667 8.49395ZM12.2262 4.81395L12.1965 5.06218L12.2113 5.06395H12.2262V4.81395ZM12.029 4.81395L12.0519 5.063L12.0588 5.06218L12.029 4.81395ZM7.88357 10.0933L7.64114 10.0315L7.63915 10.0407L7.88357 10.0933ZM6.83762 13.2544L7.0599 13.3695L7.06516 13.358L6.83762 13.2544ZM6.35024 13.9872L6.46855 14.2074L6.51117 14.1845L6.54217 14.1474L6.35024 13.9872ZM5.99429 14.367L6.15687 14.5569L6.19927 14.5206L6.22221 14.4697L5.99429 14.367ZM2.64286 15.5223H2.39286V15.7625L2.63282 15.7721L2.64286 15.5223ZM22.9048 22.1977V21.9477V22.1977ZM5.92857 20.593V20.843H6.17857V20.593H5.92857ZM2.64286 20.593H2.39286V20.843H2.64286V20.593ZM2.64286 17.1537V16.9037H2.39286V17.1537H2.64286ZM2.7469 17.1537V17.4037H2.74692L2.7469 17.1537ZM5.92857 16.3888H6.17857V15.9801L5.81468 16.1663L5.92857 16.3888ZM11.4048 20.593V20.843H11.6548V20.593H11.4048ZM7.57143 20.593H7.32143V20.843H7.57143V20.593ZM7.57143 15.0891L7.38308 14.9247L7.32143 14.9953V15.0891H7.57143ZM8.30524 14.0193L8.52677 14.1358L8.53203 14.1245L8.30524 14.0193ZM9.47714 10.5265L9.23478 10.4645L9.23278 10.4737L9.47714 10.5265ZM11.4048 6.67535H11.6548V6.27125L11.2932 6.45164L11.4048 6.67535ZM16.881 20.593V20.843H17.131V20.593H16.881ZM13.0476 20.593H12.7976V20.843H13.0476V20.593ZM13.0476 6.48279L13.1052 6.23952L12.7976 6.16668V6.48279H13.0476ZM14.7233 8.70791L14.9586 8.62346L14.9586 8.62344L14.7233 8.70791ZM16.881 11.5802H17.131V11.4061L16.9676 11.3457L16.881 11.5802ZM21.8095 20.593V20.843H22.0595V20.593H21.8095ZM18.5238 20.593H18.2738V20.843H18.5238V20.593ZM18.5238 11.7353L18.4951 11.487L18.2738 11.5126V11.7353H18.5238ZM21.6179 9.25349L21.4005 9.12987L21.3984 9.13374L21.6179 9.25349ZM21.8095 8.91651H22.0595V7.97132L21.5922 8.79291L21.8095 8.91651ZM23.7024 21.1279V7.22093H23.2024V21.1279H23.7024ZM23.7024 7.22093C23.7024 6.95535 23.6828 6.68993 23.5635 6.49073C23.4229 6.256 23.1853 6.1686 22.9048 6.1686V6.6686C23.0788 6.6686 23.115 6.71493 23.1345 6.74764C23.1754 6.81589 23.2024 6.95163 23.2024 7.22093H23.7024ZM22.9048 6.1686C21.1492 6.1686 20.4502 7.46026 19.9476 8.37341L20.3857 8.6145C20.9017 7.67695 21.4732 6.6686 22.9048 6.6686V6.1686ZM19.9474 8.37385C19.6508 8.91535 19.4264 9.29213 19.1425 9.54179C18.8749 9.77709 18.5367 9.91279 17.9762 9.91279V10.4128C18.6314 10.4128 19.0955 10.249 19.4727 9.91728C19.8336 9.59996 20.0966 9.14232 20.3859 8.61405L19.9474 8.37385ZM17.9762 9.91279C17.7731 9.91279 17.6224 9.88288 17.5013 9.82856C17.382 9.77504 17.2765 9.69112 17.1731 9.56003C16.9554 9.28394 16.7692 8.83082 16.5086 8.09978L16.0376 8.26766C16.2918 8.98081 16.5026 9.51723 16.7805 9.86963C16.9249 10.0528 17.0918 10.1928 17.2966 10.2847C17.4997 10.3758 17.7248 10.4128 17.9762 10.4128V9.91279ZM16.5086 8.09978C16.2538 7.38503 15.941 6.49841 15.3499 5.79627C14.7457 5.07848 13.8614 4.56395 12.5 4.56395V5.06395C13.7124 5.06395 14.4573 5.51221 14.9674 6.11827C15.4908 6.73996 15.7776 7.53822 16.0376 8.26766L16.5086 8.09978ZM12.5 4.56395H12.3248V5.06395H12.5V4.56395ZM12.3248 4.56395H12.2262V5.06395H12.3248V4.56395ZM12.2559 4.56572C12.1707 4.55553 12.0845 4.55553 11.9993 4.56572L12.0588 5.06218C12.1045 5.05671 12.1507 5.05671 12.1965 5.06218L12.2559 4.56572ZM12.0062 4.565C10.4844 4.70452 9.53391 5.48883 8.89671 6.5353C8.26987 7.56476 7.94035 8.85787 7.64131 10.0315L8.12583 10.155C8.42917 8.96446 8.74311 7.74896 9.32377 6.79534C9.89407 5.85873 10.7151 5.18548 12.0519 5.06291L12.0062 4.565ZM7.63915 10.0407C7.40942 11.1099 7.06449 12.1524 6.61008 13.1509L7.06516 13.358C7.53441 12.3269 7.89069 11.2502 8.12799 10.1458L7.63915 10.0407ZM6.61562 13.1395C6.48901 13.3839 6.3357 13.6145 6.15831 13.827L6.54217 14.1474C6.74273 13.9071 6.91623 13.6463 7.05962 13.3694L6.61562 13.1395ZM6.23193 13.767C6.02606 13.8776 5.86203 14.052 5.76636 14.2643L6.22221 14.4697C6.27197 14.3593 6.35813 14.2668 6.46855 14.2074L6.23193 13.767ZM5.8317 14.1771C4.95624 14.9266 3.81812 15.3193 2.65289 15.2725L2.63282 15.7721C3.92271 15.8239 5.18449 15.3894 6.15687 14.5569L5.8317 14.1771ZM2.89286 15.5223V0.802326H2.39286V15.5223H2.89286ZM2.89286 0.802326C2.89286 0.215629 2.40758 -0.25 1.82143 -0.25V0.25C2.1426 0.25 2.39286 0.502798 2.39286 0.802326H2.89286ZM1.82143 -0.25C1.23527 -0.25 0.75 0.215629 0.75 0.802326H1.25C1.25 0.502798 1.50026 0.25 1.82143 0.25V-0.25ZM0.75 0.802326V21.3953H1.25V0.802326H0.75ZM0.75 21.3953C0.75 21.982 1.23527 22.4477 1.82143 22.4477V21.9477C1.50026 21.9477 1.25 21.6949 1.25 21.3953H0.75ZM1.82143 22.4477H22.9048V21.9477H1.82143V22.4477ZM22.9048 22.4477C23.1092 22.4477 23.2714 22.3428 23.3855 22.224C23.4995 22.1053 23.5843 21.9547 23.6425 21.8105C23.7009 21.6656 23.739 21.5112 23.7493 21.3749C23.7545 21.3072 23.7535 21.2349 23.7398 21.1665C23.7272 21.1033 23.6973 21.0104 23.6174 20.9401L23.2873 21.3157C23.2485 21.2816 23.2465 21.2491 23.2495 21.2642C23.2514 21.274 23.2537 21.2978 23.2508 21.3371C23.2449 21.4149 23.2209 21.5189 23.1788 21.6234C23.1364 21.7286 23.0818 21.8184 23.0249 21.8777C22.968 21.9369 22.9276 21.9477 22.9048 21.9477V22.4477ZM5.92857 20.343H2.64286V20.843H5.92857V20.343ZM2.89286 20.593V17.1537H2.39286V20.593H2.89286ZM2.64286 17.4037H2.7469V16.9037H2.64286V17.4037ZM2.74692 17.4037C3.89457 17.4037 5.02535 17.1319 6.04246 16.6114L5.81468 16.1663C4.86844 16.6505 3.81576 16.9037 2.74689 16.9037L2.74692 17.4037ZM5.67857 16.3888V20.593H6.17857V16.3888H5.67857ZM11.4048 20.343H7.57143V20.843H11.4048V20.343ZM7.82143 20.593V15.0891H7.32143V20.593H7.82143ZM7.75977 15.2535C8.05857 14.9111 8.31587 14.5361 8.52649 14.1357L8.08398 13.9029C7.89158 14.2687 7.65641 14.6115 7.38308 14.9247L7.75977 15.2535ZM8.53203 14.1245C9.059 12.9885 9.45786 11.7998 9.72151 10.5793L9.23278 10.4737C8.97696 11.6579 8.58992 12.8115 8.07845 13.9141L8.53203 14.1245ZM9.71934 10.5885C9.97767 9.5792 10.2002 8.76456 10.4802 8.1395C10.7586 7.51807 11.0798 7.11686 11.5164 6.89906L11.2932 6.45164C10.7112 6.74198 10.326 7.26077 10.0239 7.93509C9.72341 8.60579 9.49138 9.46266 9.23495 10.4645L9.71934 10.5885ZM11.1548 6.67535V20.593H11.6548V6.67535H11.1548ZM16.881 20.343H13.0476V20.843H16.881V20.343ZM13.2976 20.593V6.48279H12.7976V20.593H13.2976ZM12.99 6.72606C13.3701 6.81606 13.6284 7.01913 13.8501 7.3511C14.0808 7.69644 14.2645 8.16967 14.488 8.79238L14.9586 8.62344C14.7386 8.01056 14.5363 7.47821 14.2659 7.07338C13.9865 6.65517 13.6287 6.36347 13.1052 6.23952L12.99 6.72606ZM14.488 8.79235C14.8514 9.80491 15.3638 11.2864 16.7943 11.8147L16.9676 11.3457C15.7914 10.9113 15.34 9.68625 14.9586 8.62346L14.488 8.79235ZM16.631 11.5802V20.593H17.131V11.5802H16.631ZM21.8095 20.343H18.5238V20.843H21.8095V20.343ZM18.7738 20.593V11.7353H18.2738V20.593H18.7738ZM18.5525 11.9837C20.5413 11.7538 21.307 10.3451 21.8373 9.37324L21.3984 9.13374C20.8663 10.1088 20.2083 11.289 18.4951 11.487L18.5525 11.9837ZM21.8352 9.37709L22.0268 9.04011L21.5922 8.79291L21.4005 9.12989L21.8352 9.37709ZM21.5595 8.91651V20.593H22.0595V8.91651H21.5595Z" fill="#D3CFEA"/>
</svg>
