<svg width="62" height="68" viewBox="0 0 62 68" fill="none" xmlns="http://www.w3.org/2000/svg">
<path d="M13.86 61.9608C13.86 65.1594 10.7571 67.75 6.93 67.75C3.10288 67.75 0 65.1594 0 61.9608V37.2892C0 34.0906 3.10288 31.5 6.93 31.5C10.7571 31.5 13.86 34.0906 13.86 37.2892V61.9608Z" fill="#472FC8"/>
<path fill-rule="evenodd" clip-rule="evenodd" d="M6.93 30.25C10.7573 30.25 13.86 27.172 13.86 23.375C13.86 19.578 10.7573 16.5 6.93 16.5C3.10267 16.5 0 19.578 0 23.375C0 27.172 3.10267 30.25 6.93 30.25Z" fill="#00BEA1"/>
<path d="M61.0802 59.7812C61.0802 65.3037 57.8269 67.2812 52.2602 67.2812H26.6406C21.0739 67.2812 16.5606 62.8037 16.5606 57.2812V32.2812C16.5606 32.2812 16.0629 28.1237 20.701 24.215C23.3243 22.0025 27.2202 17.785 29.9431 12.6637C35.351 2.49247 38.5854 -0.468776 41.0525 0.324974C50.1724 3.25872 45.6112 16.6762 42.6691 22.2812H50.9989C56.5656 22.2812 61.0789 26.7587 61.0789 32.2812V59.7812H61.0802Z" fill="#472FC8"/>
<mask id="mask0" mask-type="alpha" maskUnits="userSpaceOnUse" x="16" y="0" width="46" height="68">
<path d="M61.0802 59.7812C61.0802 65.3037 57.8269 67.2812 52.2602 67.2812H26.6406C21.0739 67.2812 16.5606 62.8037 16.5606 57.2812V32.2812C16.5606 32.2812 16.0629 28.1237 20.701 24.215C23.3243 22.0025 27.2202 17.785 29.9431 12.6637C35.351 2.49247 38.5854 -0.468776 41.0525 0.324974C50.1724 3.25872 45.6112 16.6762 42.6691 22.2812H50.9989C56.5656 22.2812 61.0789 26.7587 61.0789 32.2812V59.7812H61.0802Z" fill="white"/>
</mask>
<g mask="url(#mask0)">
<path d="M53.052 15.748L104.338 45.123L74.728 96.002L23.442 66.627L53.052 15.748Z" fill="#351DB6"/>
</g>
</svg>
