<svg width="87" height="119" viewBox="0 0 87 119" fill="none" xmlns="http://www.w3.org/2000/svg">
<path d="M86.8 74.8281C86.8 98.9001 67.368 118.4 43.396 118.4C19.952 118.4 0.852039 99.7401 0.0400391 76.4001C17.4752 75.9989 32.7051 64.5048 37.872 47.8481H42.4C45.9644 47.8349 48.8463 44.9405 48.844 41.3761V31.6001C70.244 34.2721 86.8 52.6121 86.8 74.8281Z" fill="#160094"/>
<path d="M34.72 35.692C34.72 55.08 19.324 70.864 0.136 71.384C0.0914696 71.3961 0.0445304 71.3961 0 71.384V0C18.068 0.4 32.8 14.376 34.548 32.16C34.66 33.32 34.72 34.508 34.72 35.692Z" fill="#472FC8"/>
<rect x="19.9561" y="27.4199" width="24.332" height="16.552" rx="4.712" fill="#351DB6"/>
<path d="M74.6119 24.472C81.3432 24.472 86.7999 18.9938 86.7999 12.236C86.7999 5.47824 81.3432 0 74.6119 0C67.8807 0 62.424 5.47824 62.424 12.236C62.424 18.9938 67.8807 24.472 74.6119 24.472Z" fill="#00BEA1"/>
</svg>
