<svg width="276" height="312" viewBox="0 0 276 312" fill="none" xmlns="http://www.w3.org/2000/svg">
<path d="M112.298 174.019L49.7136 214.886C46.7595 216.816 41.7213 214.332 38.4865 209.336L3.5421 155.824C0.279223 150.828 0.0336292 145.215 2.98075 143.285L65.5649 102.411C68.5261 100.482 73.5642 102.973 76.8271 107.962L111.772 161.48C115.02 166.469 115.252 172.09 112.298 174.019Z" fill="#F3F6FF"/>
<path d="M233.431 148.218L170.847 189.085C167.893 191.021 162.848 188.53 159.62 183.541L124.641 130.023C121.378 125.027 121.132 119.413 124.086 117.484L186.67 76.617C189.625 74.6874 194.67 77.1714 197.933 82.1675L232.905 135.679C236.14 140.675 236.414 146.288 233.431 148.218Z" fill="#F3F6FF"/>
<path d="M190.102 260.482L127.518 301.356C124.556 303.285 119.518 300.801 116.29 295.805L81.339 242.294C78.0761 237.298 77.8305 231.684 80.7847 229.748L143.369 188.881C146.323 186.951 151.368 189.435 154.596 194.431L189.547 247.943C192.817 252.939 193.063 258.552 190.102 260.482Z" fill="#F3F6FF"/>
<path d="M74.7852 286.726L86.714 288.543C106.595 245.136 126.477 201.729 146.358 158.322L193.652 186.909C190.047 192.633 186.799 198.573 183.927 204.697C175.95 221.814 170.921 240.154 169.051 258.945L183.604 262.25C191.196 249.943 202.016 232.288 215.026 210.655C226.913 190.881 231.537 182.91 229.249 173.275C227.039 163.978 218.815 157.908 202.459 146.155C191.431 138.233 179.819 131.156 167.725 124.985L105.197 124.655C103.351 127.93 101.801 131.363 100.565 134.914C95.2536 150.162 98.2218 160.708 97.2534 179.233C96.8251 187.414 95.7267 195.545 93.9695 203.547C91.4223 209.721 88.9804 216.303 86.742 223.299C80.1578 243.868 76.1417 265.171 74.7852 286.726H74.7852Z" fill="#472FC8"/>
<path d="M193.554 52.8856C191.14 62.5409 185.597 68.5263 179.12 75.3398C161.199 94.2014 146.239 94.889 144.253 105.807C143.46 110.137 144.52 117.035 154.954 127.174L160.792 134.528C156.491 139.159 148.779 146.014 137.503 149.207C113.385 156.014 89.2191 141.489 76.5044 125.918C73.8239 122.634 55.1448 99.015 63.3546 72.8979C64.6738 68.6877 69.6699 52.8294 85.5703 46.1563C90.6904 44.0257 96.23 43.0944 101.765 43.4337C105.666 43.6507 109.518 44.4088 113.21 45.6862C115.148 41.8901 117.424 38.2759 120.009 34.8871C126.963 25.6458 139.173 13.7029 156.673 11.9908C161.297 11.5347 177.331 9.96288 187.548 21.2111C197.764 32.4592 194.614 48.6052 193.554 52.8856Z" fill="#00BEA1"/>
<path d="M94.0327 88.686C97.0263 95.3872 100.878 101.671 105.491 107.379C111.231 114.459 119.757 124.697 134.142 128.395C138.394 129.49 146.99 130.991 158.161 127.834C148.734 127.215 139.488 124.95 130.844 121.139C109.835 111.842 98.5236 95.9205 94.0327 88.686Z" fill="#0D0E56"/>
<path d="M70.3645 294.374C69.8089 296.244 69.7484 298.227 70.1891 300.128L119.799 300.226C119.503 298.857 118.847 297.593 117.897 296.563C115.883 294.458 113.028 294.156 109.751 294.03C98.1656 293.553 93.4152 295.798 89.184 292.809C88.1183 292.04 87.2186 291.064 86.5386 289.939L74.3712 288.627C72.4646 290.074 71.0626 292.085 70.3645 294.374Z" fill="#0D0E56"/>
<path d="M169.051 260.917L183.036 263.689C182.502 265.303 181.962 266.91 181.422 268.523C182.973 270.345 184.833 271.879 186.916 273.056C194.536 277.337 201.203 274.383 205.665 278.768C206.767 279.849 207.981 281.68 208.388 284.936C195.252 282.073 176.854 277.863 163.718 275C163.338 273.165 163.507 271.26 164.202 269.52C164.904 267.829 165.886 267.218 167.234 264.917C167.98 263.652 168.589 262.311 169.051 260.917Z" fill="#0D0E56"/>
<path d="M101.036 38.6062C111.476 38.6062 119.939 30.1427 119.939 19.7025C119.939 9.26229 111.476 0.798828 101.036 0.798828C90.5954 0.798828 82.132 9.26229 82.132 19.7025C82.132 30.1427 90.5954 38.6062 101.036 38.6062Z" fill="#472FC8"/>
<path d="M154.954 128.556C172.129 128.556 186.053 114.633 186.053 97.4573C186.053 80.2817 172.129 66.3582 154.954 66.3582C137.778 66.3582 123.855 80.2817 123.855 97.4573C123.855 114.633 137.778 128.556 154.954 128.556Z" fill="#ADFFEF"/>
<path d="M265.429 122.838C248.253 122.838 234.33 108.914 234.33 91.7385C234.33 74.563 248.253 60.6394 265.429 60.6394V122.838Z" fill="#ADFFEF"/>
<path d="M275.61 137.636L265.429 145.355V41.848L275.61 34.1294V137.636Z" fill="#9F9DED"/>
<path d="M160.139 66.7931C159.642 63.959 159.571 61.0665 159.929 58.2114C160.069 57.0676 160.631 52.668 161.69 52.5978C162.287 52.5628 163.192 53.8679 164.546 59.7271C165.491 58.5264 166.735 57.5949 168.153 57.0255C171.661 55.6643 176.026 56.787 177.976 59.3903C179.317 61.1936 178.741 62.6952 177.976 70.0911C176.98 79.8797 177.485 82.1673 176.061 82.7216C173.794 83.5917 169.486 78.9605 167.5 74.61C166.609 72.6369 166.084 70.5186 165.949 68.3579L160.139 66.7931Z" fill="#0D0E56"/>
<path d="M155.375 127.532C152.868 130.044 152.713 134.06 155.017 136.759C157.266 137.744 159.669 138.333 162.118 138.499C164.406 138.654 166.104 138.773 167.732 137.882C169.991 136.633 170.146 134.472 171.942 130.283C174.938 123.406 177.906 121.476 177.043 120.325C175.899 118.803 169.858 121.139 165.949 123.553C164.115 124.683 162.423 126.031 160.911 127.567C162.712 124.213 163.36 122.342 162.855 121.953C162.219 121.42 159.725 123.28 155.375 127.532Z" fill="#0D0E56"/>
<path d="M150.898 59.5728C150.981 61.9085 151.351 64.2252 152 66.4704L160.139 66.7651C157.465 62.3521 156.225 57.2187 156.589 52.0716C157.368 42.0935 164.139 36.1432 165.542 35.0134C161.192 37.0213 157.497 40.2175 154.884 44.2337C152.005 48.8134 150.613 54.1711 150.898 59.5728Z" fill="#0D0E56"/>
<path d="M270.074 298.282L163.725 275L119.799 300.226L23.6527 298.479L121.258 311.208L169.233 283.049L270.074 298.282Z" fill="#5E5FA8"/>
<path d="M189.54 193.821L193.659 186.909L175.647 176.054C182.127 178.972 188.876 181.25 195.8 182.854C197.732 183.298 199.614 183.682 201.448 184.004L189.54 193.821Z" fill="#0D0E56"/>
<path d="M120.002 46.7668C119.571 47.6411 118.994 48.4359 118.297 49.1175C114.312 52.8926 106.368 52.3382 102.741 48.2754C102.228 47.693 100.601 45.8616 101.148 44.3249C101.268 43.9807 101.482 43.6769 101.765 43.4478C105.666 43.6647 109.518 44.4228 113.21 45.7002C115.148 41.9041 117.424 38.2899 120.009 34.9011C121.715 36.5431 122.297 42.3952 120.002 46.7668Z" fill="#0D0E56"/>
<path d="M220.064 172.707C218.149 175.9 218.149 179.724 220.064 182.426C221.267 184.043 223.009 185.176 224.976 185.618C221.983 181.961 220.259 177.429 220.064 172.707V172.707Z" fill="#0D0E56"/>
<path d="M111.603 206.459C109.33 209.406 108.873 213.195 110.445 216.107C111.449 217.858 113.047 219.19 114.95 219.861C113.806 218.069 112.932 216.118 112.354 214.072C111.662 211.597 111.408 209.021 111.603 206.459Z" fill="#0D0E56"/>
</svg>
